<?xml version="1.0" encoding="UTF-8"?>
<svg id="Layer_2" data-name="Layer 2" xmlns="http://www.w3.org/2000/svg" viewBox="0 0 660.28 145.66">
  <g id="Layer_1-2" data-name="Layer 1">
    <path d="M108.47,117.45v20.04c0,4.68-3.48,8.17-8.17,8.17s-8.17-3.48-8.17-8.17v-63.6c0-4.79,3.48-8.28,8.17-8.28,3.92,0,7.3,2.4,8.06,5.99,3.16-3.81,8.49-6.53,15.46-6.53,16.44,0,24.5,15.57,24.5,29.84,0,15.03-8.49,29.51-24.61,29.51-6.53,0-11.11-2.18-15.25-6.97ZM119.91,109.72c7.19,0,11.54-5.77,11.54-15.03s-4.14-15.03-11.76-15.03c-7.19,0-11.22,4.9-11.22,14.7s4.14,15.35,11.43,15.35Z" style="fill: #fdff71;"/>
    <path d="M183.55,65.07c16.88,0,28.1,13.07,28.1,29.51s-11.22,29.84-28.1,29.84-28.1-12.96-28.1-29.84,11.22-29.51,28.1-29.51ZM194.76,94.58c0-9.58-4.14-14.59-11.22-14.59s-11.22,5.01-11.22,14.59,4.14,14.92,11.22,14.92,11.22-4.9,11.22-14.92Z" style="fill: #fdff71;"/>
    <path d="M221.6,115.71v-41.93c0-4.46,3.7-8.17,8.49-8.17,4.46,0,7.41,3.16,7.73,7.08,2.5-4.03,6.21-7.62,10.89-7.62s8.6,3.59,8.6,8.17-3.7,8.17-9.04,8.17c-8.6,0-10.35,5.99-10.35,11.54v22.76c0,4.47-3.7,8.17-8.17,8.17s-8.17-3.7-8.17-8.17Z" style="fill: #fdff71;"/>
    <path d="M270.96,106.89v-26.03h-1.31c-3.92,0-7.08-3.16-7.08-7.08s3.16-7.08,7.08-7.08h1.31v-3.81c0-4.46,3.7-8.17,8.17-8.17s8.17,3.7,8.17,8.17v3.81h9.69c3.92,0,7.08,3.16,7.08,7.08s-3.16,7.08-7.08,7.08h-9.69v24.83c0,1.52.44,2.18,1.31,2.18,1.63,0,3.38-2.07,6.53-2.07,4.47,0,8.17,3.7,8.17,8.17,0,6.97-8.06,9.91-14.81,9.91-11.76,0-17.53-8.17-17.53-16.99Z" style="fill: #fdff71;"/>
    <path d="M320.36,115.71v-34.85h-3.48c-3.92,0-7.08-3.16-7.08-7.08s3.16-7.08,7.08-7.08h3.48v-6.97c0-8.82,5.77-16.99,17.32-16.99,6.97,0,15.03,2.94,15.03,10.24,0,4.57-3.05,7.62-7.51,7.62-3.7,0-5.77-2.07-7.19-2.07-1.2,0-1.31,1.31-1.31,3.59v4.57h8.6c3.92,0,7.08,3.16,7.08,7.08s-3.16,7.08-7.08,7.08h-8.6v34.85c0,4.47-3.7,8.17-8.17,8.17s-8.17-3.7-8.17-8.17Z" style="fill: #fdff71;"/>
    <path d="M383.85,65.07c16.88,0,28.1,13.07,28.1,29.51s-11.22,29.84-28.1,29.84-28.1-12.96-28.1-29.84,11.22-29.51,28.1-29.51ZM395.07,94.58c0-9.58-4.14-14.59-11.22-14.59s-11.22,5.01-11.22,14.59,4.14,14.92,11.22,14.92,11.22-4.9,11.22-14.92Z" style="fill: #fdff71;"/>
    <path d="M438.13,116.91c-.65,3.92-4.03,6.97-8.06,6.97-4.46,0-8.17-3.7-8.17-8.28V51.46c0-4.47,3.7-8.17,8.17-8.17s8.17,3.7,8.17,8.17v20.26c4.25-4.9,9.26-6.64,14.81-6.64,17.42,0,25.05,16.23,25.05,29.62s-7.62,29.73-24.39,29.73c-7.62,0-12.74-3.16-15.57-7.51ZM449.46,109.72c7.62,0,11.76-5.44,11.76-15.03s-4.36-15.03-11.54-15.03-11.43,5.55-11.43,15.35,4.03,14.7,11.22,14.7Z" style="fill: #fdff71;"/>
    <path d="M484.94,95.23c0-16.44,10.13-30.17,26.79-30.17s26.9,13.72,26.9,24.83c0,5.99-3.16,9.58-9.47,9.58h-26.68c1.52,7.3,6.32,10.35,11.87,10.35,4.14,0,6.21-1.63,8.28-3.16,1.85-1.53,3.7-2.94,6.86-2.94,4.57,0,7.51,3.38,7.51,7.3,0,7.73-11.11,13.4-22.65,13.4-17.21,0-29.4-11.76-29.4-29.19ZM521.85,88.59c-1.2-5.77-4.57-8.6-9.8-8.6s-8.49,2.61-9.69,8.6h19.49Z" style="fill: #fdff71;"/>
    <path d="M548.54,115.6V51.46c0-4.47,3.7-8.17,8.17-8.17s8.17,3.7,8.17,8.17v64.14c0,4.57-3.7,8.28-8.17,8.28s-8.17-3.7-8.17-8.28Z" style="fill: #fdff71;"/>
    <path d="M577.91,115.6V51.46c0-4.47,3.7-8.17,8.17-8.17s8.17,3.7,8.17,8.17v64.14c0,4.57-3.7,8.28-8.17,8.28s-8.17-3.7-8.17-8.28Z" style="fill: #fdff71;"/>
    <path d="M632.19,65.07c16.88,0,28.1,13.07,28.1,29.51s-11.22,29.84-28.1,29.84-28.1-12.96-28.1-29.84,11.22-29.51,28.1-29.51ZM643.4,94.58c0-9.58-4.14-14.59-11.22-14.59s-11.22,5.01-11.22,14.59,4.14,14.92,11.22,14.92,11.22-4.9,11.22-14.92Z" style="fill: #fdff71;"/>
    <path d="M118.24,47.35c-5.96,10.13-33.69-6.48-47.44,6.55-13.91,13.19-11.18,38.45-11.2,68,0,4.24-2.42,8.52-5.83,12.07-5.41,5.61-13.3,9.35-17.98,8.07-2.71-.74-5.18-3.39-7.16-7.34-6.33-12.59-7.86-38.4,2.53-58.02,6.66-12.57,16.49-19.3,14.34-22.78-3.77-6.11-34.86,13.6-43.22,4.86-7.04-7.35,2.78-34.12,21.76-48.01,21.22-15.54,51.3-13.06,71.01,0,14.88,9.86,27.97,28.49,23.19,36.6Z" style="fill: #fdff71;"/>
  </g>
</svg>